<?xml version="1.0" encoding="utf-8"?>
<!-- Generator: Adobe Illustrator 27.0.1, SVG Export Plug-In . SVG Version: 6.00 Build 0)  -->
<svg version="1.1" id="Logo" xmlns="http://www.w3.org/2000/svg" xmlns:xlink="http://www.w3.org/1999/xlink" x="0px" y="0px"
	 viewBox="0 0 500 500" style="enable-background:new 0 0 500 500;" xml:space="preserve">
<style type="text/css">
	.st0{fill:#CD2A27;}
	.st1{fill:#1A9DD2;}
	.st2{fill:#FFFFFF;}
	.st3{fill:#D4D4D3;}
</style>
<g>
	<path class="st0" d="M399.82,89.39c0.06,1.22,0.12,1.93,0.12,2.64c0,69.68-0.01,139.36,0.05,209.05c0,2.11-0.61,2.56-2.62,2.56
		c-60.42-0.05-120.83-0.05-181.25-0.04c-4.39,0-8.79,0.07-13.18,0.11c-3.19,3.12-6.36,6.25-9.58,9.34
		c-0.58,0.55-1.31,0.95-1.97,1.41c0.15,0.28,0.29,0.56,0.44,0.84c0.82,0,1.65,0,2.47,0c38.83,0,77.67,0.01,116.5-0.03
		c1.76,0,3.01,0.51,4.25,1.76c10.29,10.38,21.54,19.86,30.99,31.01c0.57,0.67,0.96,1.22,1.36,1.89c-0.2,0.26,0.2-0.26,0,0
		c-79.84,0-159.67,0-239.95,0c0.75-0.79,1.22-1.32,1.72-1.82c25.87-25.89,51.76-51.77,77.6-77.69c1.21-1.22,2.43-1.64,4.1-1.64
		c57.04,0.04,114.07,0.03,171.11,0.03c3.18,0,3.18,0,3.18-3.15c0-46.41,0.01-92.82-0.04-139.23c0-1.77,0.52-3.01,1.77-4.25
		c10.37-10.29,20.68-20.65,31.02-30.98C398.43,90.7,398.95,90.22,399.82,89.39z"/>
	<path class="st1" d="M100,342.42c0-80.35,0-160.12,0-240.4c0.86,0.8,1.39,1.27,1.89,1.77c10.33,10.33,20.64,20.69,31.02,30.98
		c1.2,1.19,1.7,2.38,1.7,4.08c-0.04,38.83-0.03,77.66-0.03,116.5c0,0.85,0,1.7,0,3.18c0.95-0.85,1.44-1.25,1.89-1.69
		c2.64-2.62,5.2-5.33,7.92-7.86c1.4-1.3,1.94-2.66,1.93-4.59c-0.05-46.34-0.04-92.68-0.04-139.02c0-17.52,0-35.04,0-52.56
		c0-0.87,0-1.74,0-2.79c71.33,0,142.49,0,214,0c-0.67,0.72-1.13,1.26-1.62,1.76c-10.42,10.43-20.87,20.85-31.25,31.32
		c-1.15,1.16-2.31,1.58-3.92,1.58c-46.48-0.04-92.96-0.03-139.43-0.03c-3.31,0-2.97-0.35-2.97,2.89
		c-0.01,57.1-0.01,114.2,0.03,171.29c0,1.83-0.5,3.13-1.81,4.43c-25.77,25.71-51.49,51.46-77.23,77.2
		C101.51,341.01,100.93,341.54,100,342.42z"/>
	<path class="st2" d="M309.68,140.09c0,1.06,0,1.79,0,2.52c0,22.72-0.03,45.45,0.05,68.17c0.01,2.09-0.57,2.57-2.6,2.56
		c-22.66-0.07-45.31-0.07-67.97,0c-2.02,0.01-2.64-0.48-2.63-2.58c0.08-22.72,0.07-45.45,0.01-68.17c0-1.88,0.39-2.56,2.43-2.55
		c22.79,0.07,45.58,0.05,68.38,0.05C308.02,140.09,308.68,140.09,309.68,140.09z"/>
</g>
<g>
	<path class="st3" d="M24.39,442.22V399.6h10.22v41.18h18.86V399.6H63.7v42.62L55.93,450H32.17L24.39,442.22z"/>
	<path class="st3" d="M71.19,450v-40.32h29.23l7.92,7.92V450H98.12v-31.39h-16.7V450H71.19z"/>
	<path class="st3" d="M115.83,450v-32.4l7.92-7.92h20.74v9.22h-18.43V450H115.83z"/>
	<path class="st3" d="M149.17,442.37v-25.06l7.63-7.63h28.37v22.61h-25.78v9.07h24.34V450H156.8L149.17,442.37z M159.39,426.67
		l16.85-0.72v-8.21h-16.85V426.67z"/>
	<path class="st3" d="M191.43,442.08v-15.12l26.21-0.72v-7.92h-24.77v-8.64h27.07l7.92,7.92V450h-28.51L191.43,442.08z
		 M201.65,433.3v8.35h15.98v-9.79L201.65,433.3z"/>
	<path class="st3" d="M235.35,450v-50.4h10.22V450H235.35z"/>
	<path class="st2" d="M310.66,407.38v24.05l-7.78,7.78H282V450h-10.22v-50.4h31.1L310.66,407.38z M282,430.85h18.43v-22.9H282
		V430.85z"/>
	<path class="st2" d="M316.71,405.5v-7.2h10.22v7.2H316.71z M316.71,450v-40.32h10.22V450H316.71z"/>
	<path class="st2" d="M332.04,450l10.37-21.31l-9.58-19.01h11.45l6.62,15.41h4.9l6.62-15.41h11.45l-9.58,19.01L374.67,450h-11.52
		l-6.77-16.27h-6.05L343.56,450H332.04z"/>
	<path class="st2" d="M379.27,442.37v-25.06l7.63-7.63h28.37v22.61H389.5v9.07h24.34V450h-26.93L379.27,442.37z M389.5,426.67
		l16.85-0.72v-8.21H389.5V426.67z"/>
	<path class="st2" d="M422.26,450v-50.4h10.22V450H422.26z"/>
	<path class="st2" d="M439.47,450v-8.35h25.92v-8.86h-25.92v-15.48l7.63-7.63h28.51v8.35h-25.92v8.42h25.92v16.13l-7.42,7.42H439.47
		z"/>
</g>
</svg>
