<?xml version="1.0" encoding="utf-8"?>
<!-- Generator: Adobe Illustrator 27.0.1, SVG Export Plug-In . SVG Version: 6.00 Build 0)  -->
<svg version="1.1" id="Logo" xmlns="http://www.w3.org/2000/svg" xmlns:xlink="http://www.w3.org/1999/xlink" x="0px" y="0px"
	 viewBox="0 0 600 100" style="enable-background:new 0 0 600 100;" xml:space="preserve">
<style type="text/css">
	.st0{fill:#CD2A27;}
	.st1{fill:#1A9DD2;}
	.st2{fill:#FFFFFF;}
	.st3{fill:#D4D4D3;}
</style>
<g>
	<g>
		<path class="st0" d="M104.35,20.51c0.02,0.33,0.03,0.51,0.03,0.7c0,18.58,0,37.16,0.01,55.75c0,0.56-0.16,0.68-0.7,0.68
			c-16.11-0.01-32.22-0.01-48.33-0.01c-1.17,0-2.34,0.02-3.51,0.03c-0.85,0.83-1.7,1.67-2.55,2.49c-0.15,0.15-0.35,0.25-0.53,0.38
			c0.04,0.07,0.08,0.15,0.12,0.22c0.22,0,0.44,0,0.66,0c10.36,0,20.71,0,31.07-0.01c0.47,0,0.8,0.14,1.13,0.47
			c2.74,2.77,5.74,5.3,8.26,8.27c0.15,0.18,0.25,0.32,0.36,0.5c-0.05,0.07,0.05-0.07,0,0c-21.29,0-42.58,0-63.99,0
			c0.2-0.21,0.33-0.35,0.46-0.48c6.9-6.9,13.8-13.8,20.69-20.72c0.32-0.32,0.65-0.44,1.09-0.44c15.21,0.01,30.42,0.01,45.63,0.01
			c0.85,0,0.85,0,0.85-0.84c0-12.38,0-24.75-0.01-37.13c0-0.47,0.14-0.8,0.47-1.13c2.77-2.74,5.52-5.51,8.27-8.26
			C103.97,20.85,104.11,20.73,104.35,20.51z"/>
		<path class="st1" d="M24.39,87.98c0-21.43,0-42.7,0-64.11c0.23,0.21,0.37,0.34,0.5,0.47c2.76,2.76,5.51,5.52,8.27,8.26
			c0.32,0.32,0.45,0.63,0.45,1.09c-0.01,10.36-0.01,20.71-0.01,31.07c0,0.23,0,0.45,0,0.85c0.25-0.23,0.38-0.33,0.5-0.45
			c0.7-0.7,1.39-1.42,2.11-2.1c0.37-0.35,0.52-0.71,0.52-1.22c-0.01-12.36-0.01-24.72-0.01-37.07c0-4.67,0-9.34,0-14.02
			c0-0.23,0-0.46,0-0.75c19.02,0,38,0,57.07,0c-0.18,0.19-0.3,0.34-0.43,0.47c-2.78,2.78-5.56,5.56-8.33,8.35
			c-0.31,0.31-0.62,0.42-1.04,0.42c-12.39-0.01-24.79-0.01-37.18-0.01c-0.88,0-0.79-0.09-0.79,0.77c0,15.23,0,30.45,0.01,45.68
			c0,0.49-0.13,0.83-0.48,1.18c-6.87,6.86-13.73,13.72-20.59,20.59C24.79,87.6,24.64,87.74,24.39,87.98z"/>
		<path class="st2" d="M80.31,34.02c0,0.28,0,0.48,0,0.67c0,6.06-0.01,12.12,0.01,18.18c0,0.56-0.15,0.68-0.69,0.68
			c-6.04-0.02-12.08-0.02-18.13,0c-0.54,0-0.7-0.13-0.7-0.69c0.02-6.06,0.02-12.12,0-18.18c0-0.5,0.1-0.68,0.65-0.68
			c6.08,0.02,12.16,0.01,18.23,0.01C79.86,34.02,80.04,34.02,80.31,34.02z"/>
	</g>
	<g>
		<path class="st3" d="M124.39,68.07V25.45h10.22v41.18h18.86V25.45h10.22v42.62l-7.78,7.78h-23.76L124.39,68.07z"/>
		<path class="st3" d="M171.19,75.85V35.53h29.23l7.92,7.92v32.4h-10.22V44.46h-16.7v31.39H171.19z"/>
		<path class="st3" d="M215.83,75.85v-32.4l7.92-7.92h20.74v9.22h-18.43v31.1H215.83z"/>
		<path class="st3" d="M249.17,68.22V43.16l7.63-7.63h28.37v22.61h-25.78v9.07h24.34v8.64H256.8L249.17,68.22z M259.39,52.52
			l16.85-0.72v-8.21h-16.85V52.52z"/>
		<path class="st3" d="M291.43,67.93V52.81l26.21-0.72v-7.92h-24.77v-8.64h27.07l7.92,7.92v32.4h-28.51L291.43,67.93z M301.65,59.14
			v8.35h15.98V57.7L301.65,59.14z"/>
		<path class="st3" d="M335.35,75.85v-50.4h10.22v50.4H335.35z"/>
		<path class="st2" d="M410.66,33.22v24.05l-7.78,7.78H382v10.8h-10.22v-50.4h31.1L410.66,33.22z M382,56.7h18.43V33.8H382V56.7z"/>
		<path class="st2" d="M416.71,31.35v-7.2h10.22v7.2H416.71z M416.71,75.85V35.53h10.22v40.32H416.71z"/>
		<path class="st2" d="M432.04,75.85l10.37-21.31l-9.58-19.01h11.45l6.62,15.41h4.9l6.62-15.41h11.45l-9.58,19.01l10.37,21.31
			h-11.52l-6.77-16.27h-6.05l-6.77,16.27H432.04z"/>
		<path class="st2" d="M479.27,68.22V43.16l7.63-7.63h28.37v22.61H489.5v9.07h24.34v8.64h-26.93L479.27,68.22z M489.5,52.52
			l16.85-0.72v-8.21H489.5V52.52z"/>
		<path class="st2" d="M522.26,75.85v-50.4h10.22v50.4H522.26z"/>
		<path class="st2" d="M539.46,75.85V67.5h25.92v-8.86h-25.92V43.16l7.63-7.63h28.51v8.35h-25.92v8.42h25.92v16.13l-7.42,7.42
			H539.46z"/>
	</g>
</g>
</svg>
